<svg id="svg" version="1.1" xmlns="http://www.w3.org/2000/svg" xmlns:xlink="http://www.w3.org/1999/xlink" width="400" height="198.75776397515526" viewBox="0, 0, 400,198.75776397515526"><g id="svgg"><path id="path0" d="M253.957 0.975 C 253.290 1.040,252.583 1.227,252.387 1.390 C 252.086 1.640,251.001 1.687,245.540 1.688 C 239.918 1.690,238.984 1.733,238.560 2.009 C 238.171 2.264,237.303 2.348,234.273 2.427 C 231.295 2.505,230.334 2.597,229.819 2.854 C 229.327 3.099,228.604 3.181,226.920 3.181 C 225.685 3.181,224.629 3.255,224.573 3.347 C 224.517 3.438,224.210 3.474,223.892 3.427 C 223.574 3.381,223.055 3.473,222.740 3.633 C 222.425 3.793,221.272 3.987,220.179 4.064 C 218.767 4.164,218.014 4.314,217.580 4.582 C 217.105 4.875,216.515 4.971,214.928 5.014 C 213.156 5.062,212.844 5.123,212.557 5.474 C 212.289 5.802,212.049 5.864,211.282 5.802 C 210.655 5.751,210.338 5.803,210.338 5.956 C 210.338 6.083,210.259 6.137,210.162 6.078 C 209.424 5.622,209.443 3.015,209.443 102.386 C 209.443 183.381,209.486 198.200,209.717 198.479 C 209.969 198.783,211.735 198.805,232.375 198.758 L 254.760 198.708 255.012 198.211 C 255.213 197.814,255.254 191.295,255.216 166.004 L 255.169 134.294 267.197 134.274 C 282.457 134.247,281.799 134.262,282.557 133.923 C 283.445 133.525,284.867 133.382,287.954 133.380 C 289.898 133.378,290.738 133.300,291.160 133.081 C 291.870 132.713,292.780 132.597,295.357 132.545 C 297.053 132.511,297.444 132.442,297.809 132.111 C 298.172 131.783,298.471 131.728,299.619 131.781 C 300.400 131.817,300.994 131.763,300.994 131.656 C 300.994 131.552,301.201 131.506,301.453 131.554 C 301.721 131.606,302.022 131.511,302.174 131.328 C 302.361 131.102,302.789 131.014,303.702 131.014 C 304.400 131.014,304.970 130.933,304.970 130.834 C 304.970 130.735,305.144 130.699,305.356 130.755 C 305.569 130.810,306.030 130.712,306.381 130.537 C 306.732 130.362,307.252 130.218,307.536 130.218 C 308.239 130.216,309.543 129.840,309.543 129.639 C 309.543 129.549,310.059 129.416,310.691 129.345 C 311.322 129.273,312.150 129.025,312.530 128.793 C 312.960 128.530,313.513 128.382,313.993 128.400 C 314.462 128.417,315.018 128.272,315.408 128.031 C 315.762 127.813,316.319 127.634,316.647 127.634 C 316.974 127.634,317.470 127.455,317.748 127.237 C 318.026 127.018,318.427 126.839,318.640 126.839 C 319.166 126.839,320.278 126.438,320.278 126.249 C 320.278 126.164,320.639 126.037,321.081 125.966 C 321.522 125.896,322.214 125.661,322.619 125.444 C 323.023 125.227,323.475 125.050,323.624 125.050 C 323.772 125.050,324.121 124.871,324.399 124.652 C 324.677 124.433,325.058 124.254,325.245 124.254 C 325.432 124.254,325.792 124.076,326.044 123.857 C 326.296 123.638,326.655 123.459,326.843 123.459 C 327.030 123.459,327.410 123.280,327.688 123.062 C 327.966 122.843,328.381 122.664,328.610 122.664 C 328.839 122.664,329.205 122.485,329.423 122.266 C 329.642 122.048,329.935 121.869,330.075 121.869 C 330.496 121.869,331.229 121.260,331.086 121.029 C 331.010 120.906,331.044 120.870,331.165 120.945 C 331.405 121.093,331.939 120.879,333.101 120.170 C 333.539 119.903,334.191 119.547,334.551 119.379 C 334.912 119.211,335.257 118.942,335.318 118.781 C 335.380 118.620,335.524 118.489,335.639 118.489 C 335.854 118.489,337.771 117.099,338.348 116.524 C 338.526 116.348,339.162 115.873,339.763 115.471 C 341.203 114.505,341.988 113.745,341.822 113.476 C 341.749 113.357,341.777 113.314,341.886 113.381 C 342.299 113.636,347.050 108.537,346.801 108.105 C 346.721 107.967,346.729 107.919,346.819 108.001 C 346.978 108.145,347.649 107.375,347.573 107.136 C 347.551 107.070,347.731 106.910,347.972 106.781 C 348.361 106.572,348.640 106.216,349.421 104.931 C 349.540 104.736,349.769 104.418,349.930 104.226 C 350.090 104.034,350.327 103.653,350.457 103.380 C 350.711 102.844,350.978 102.390,351.524 101.561 C 351.715 101.271,351.929 100.801,352.001 100.517 C 352.072 100.233,352.203 100.000,352.292 100.000 C 352.381 100.000,352.561 99.677,352.691 99.281 C 352.822 98.886,353.097 98.394,353.303 98.188 C 353.509 97.982,353.678 97.639,353.678 97.427 C 353.678 97.214,353.850 96.745,354.061 96.383 C 354.272 96.022,354.505 95.393,354.579 94.987 C 354.653 94.581,354.838 94.145,354.991 94.019 C 355.144 93.892,355.271 93.598,355.275 93.365 C 355.278 93.133,355.501 92.495,355.770 91.948 C 356.039 91.402,356.260 90.648,356.261 90.274 C 356.262 89.900,356.414 89.427,356.598 89.223 C 356.811 88.988,356.965 88.398,357.019 87.617 C 357.070 86.860,357.229 86.239,357.428 86.013 C 357.671 85.738,357.758 85.220,357.770 83.978 C 357.783 82.630,357.858 82.232,358.167 81.891 C 358.484 81.541,358.555 81.129,358.586 79.453 C 358.631 77.063,358.777 75.970,359.104 75.575 C 359.600 74.977,359.618 59.254,359.123 58.629 C 358.749 58.157,358.627 57.290,358.632 55.140 C 358.636 53.098,358.448 52.133,357.990 51.850 C 357.836 51.755,357.777 51.283,357.821 50.504 C 357.862 49.793,357.809 49.304,357.691 49.304 C 357.582 49.304,357.537 49.136,357.590 48.930 C 357.648 48.708,357.539 48.445,357.323 48.284 C 357.038 48.072,356.958 47.743,356.957 46.789 C 356.956 45.906,356.860 45.460,356.609 45.183 C 356.411 44.964,356.262 44.485,356.262 44.063 C 356.262 43.659,356.111 42.995,355.926 42.588 C 355.740 42.182,355.446 41.446,355.272 40.954 C 355.098 40.462,354.869 40.074,354.764 40.092 C 354.659 40.110,354.557 39.819,354.537 39.446 C 354.517 39.073,354.326 38.388,354.112 37.923 C 353.898 37.458,353.624 36.854,353.503 36.581 C 353.382 36.307,353.193 35.949,353.083 35.785 C 352.973 35.621,352.788 35.263,352.674 34.990 C 352.559 34.717,352.246 34.135,351.979 33.698 C 351.712 33.260,351.351 32.634,351.177 32.306 C 350.457 30.951,350.169 30.481,349.628 29.771 C 349.314 29.361,348.937 29.026,348.790 29.026 C 348.642 29.026,348.567 28.907,348.622 28.763 C 348.724 28.497,346.923 26.080,346.404 25.785 C 346.249 25.698,346.123 25.518,346.123 25.385 C 346.123 25.035,340.997 19.881,340.650 19.881 C 340.489 19.881,340.358 19.800,340.358 19.701 C 340.358 19.406,337.603 17.454,337.381 17.591 C 337.269 17.661,337.177 17.618,337.177 17.497 C 337.177 17.128,335.730 15.924,335.129 15.792 C 334.819 15.724,334.520 15.549,334.464 15.403 C 334.408 15.257,334.123 15.036,333.831 14.913 C 333.176 14.637,332.267 14.125,331.616 13.666 C 331.345 13.476,330.962 13.320,330.765 13.320 C 330.567 13.320,330.355 13.190,330.294 13.031 C 330.158 12.676,328.921 12.245,328.601 12.442 C 328.464 12.527,328.421 12.501,328.496 12.379 C 328.668 12.101,328.268 11.805,327.499 11.640 C 327.151 11.566,326.765 11.383,326.640 11.233 C 326.516 11.083,326.129 10.898,325.781 10.822 C 325.434 10.746,324.936 10.517,324.675 10.312 C 324.414 10.108,324.000 9.940,323.755 9.940 C 323.510 9.940,323.198 9.807,323.063 9.644 C 322.927 9.480,322.447 9.255,321.995 9.142 C 321.543 9.029,321.013 8.847,320.817 8.736 C 320.621 8.626,320.361 8.597,320.240 8.672 C 320.105 8.755,320.074 8.719,320.160 8.579 C 320.293 8.365,319.913 8.278,318.847 8.279 C 318.661 8.280,318.548 8.216,318.596 8.139 C 318.756 7.881,318.182 7.574,317.286 7.438 C 316.800 7.364,316.252 7.173,316.068 7.014 C 315.885 6.855,315.169 6.676,314.478 6.617 C 313.772 6.556,313.067 6.375,312.870 6.203 C 312.677 6.035,312.006 5.857,311.379 5.808 C 310.752 5.759,310.085 5.583,309.897 5.419 C 309.709 5.254,308.980 5.059,308.278 4.987 C 307.575 4.914,306.845 4.726,306.657 4.570 C 306.381 4.341,304.435 3.977,302.152 3.728 C 301.968 3.708,301.854 3.634,301.898 3.563 C 301.983 3.427,300.326 3.186,299.285 3.183 C 298.946 3.182,298.378 3.035,298.021 2.858 C 297.540 2.618,296.572 2.508,294.263 2.431 C 291.879 2.351,291.039 2.253,290.664 2.008 C 290.255 1.741,289.477 1.689,285.858 1.684 C 281.952 1.679,281.502 1.644,281.137 1.314 C 280.855 1.058,280.521 0.973,280.029 1.031 C 279.641 1.076,279.324 1.042,279.324 0.954 C 279.324 0.773,255.815 0.793,253.957 0.975 M4.464 3.669 C 3.688 4.445,3.934 5.644,5.129 6.919 C 5.468 7.280,5.805 7.772,5.879 8.012 C 6.069 8.632,6.372 8.963,6.614 8.814 C 6.734 8.740,6.761 8.782,6.679 8.916 C 6.601 9.042,6.629 9.145,6.741 9.145 C 6.854 9.145,6.894 9.279,6.831 9.443 C 6.768 9.607,6.818 9.742,6.941 9.742 C 7.065 9.742,7.272 9.988,7.402 10.288 C 7.636 10.829,8.272 11.732,8.848 12.343 C 9.011 12.516,9.145 12.771,9.145 12.910 C 9.145 13.142,9.662 13.886,10.430 14.761 C 10.598 14.953,10.737 15.176,10.739 15.258 C 10.744 15.458,11.781 16.978,12.194 17.392 C 12.376 17.574,12.525 17.836,12.525 17.976 C 12.525 18.331,13.231 19.108,13.400 18.939 C 13.477 18.862,13.487 18.937,13.423 19.104 C 13.357 19.277,13.481 19.567,13.711 19.775 C 13.933 19.976,14.115 20.249,14.115 20.380 C 14.115 20.511,14.450 21.057,14.860 21.592 C 15.269 22.127,15.742 22.833,15.910 23.161 C 16.078 23.489,16.332 23.733,16.473 23.703 C 16.614 23.673,16.673 23.740,16.603 23.852 C 16.534 23.964,16.578 24.056,16.700 24.056 C 16.822 24.056,16.863 24.152,16.790 24.270 C 16.717 24.387,16.846 24.659,17.076 24.874 C 17.307 25.088,17.495 25.359,17.495 25.476 C 17.495 25.678,18.147 26.574,18.788 27.253 C 18.952 27.426,19.085 27.711,19.085 27.885 C 19.085 28.060,19.234 28.351,19.416 28.533 C 19.864 28.981,20.867 30.473,20.871 30.699 C 20.873 30.799,21.007 31.023,21.169 31.196 C 22.038 32.125,22.465 32.688,22.465 32.903 C 22.465 33.035,22.800 33.581,23.210 34.117 C 23.619 34.652,24.092 35.358,24.260 35.686 C 24.428 36.014,24.681 36.258,24.823 36.228 C 24.964 36.198,25.019 36.270,24.946 36.389 C 24.872 36.508,24.963 36.773,25.148 36.977 C 25.333 37.181,25.635 37.645,25.820 38.008 C 26.005 38.371,26.272 38.643,26.413 38.613 C 26.554 38.583,26.613 38.650,26.544 38.762 C 26.475 38.875,26.518 38.966,26.640 38.966 C 26.762 38.966,26.803 39.063,26.730 39.180 C 26.657 39.298,26.786 39.570,27.017 39.784 C 27.247 39.999,27.435 40.269,27.435 40.384 C 27.435 40.712,28.162 41.553,28.314 41.401 C 28.389 41.326,28.394 41.412,28.325 41.591 C 28.243 41.804,28.343 41.995,28.613 42.139 C 28.840 42.260,29.026 42.529,29.026 42.736 C 29.026 42.943,29.173 43.260,29.353 43.440 C 29.814 43.901,30.622 45.117,30.829 45.663 C 30.925 45.916,31.073 46.125,31.158 46.127 C 31.243 46.129,31.581 46.585,31.909 47.140 C 32.237 47.695,32.840 48.585,33.250 49.118 C 33.661 49.652,33.996 50.153,33.996 50.232 C 33.996 50.405,35.021 51.938,35.247 52.105 C 35.335 52.169,35.562 52.527,35.751 52.900 C 35.941 53.273,36.212 53.554,36.353 53.524 C 36.495 53.494,36.553 53.561,36.484 53.673 C 36.415 53.785,36.458 53.877,36.581 53.877 C 36.703 53.877,36.743 53.973,36.671 54.091 C 36.598 54.208,36.727 54.480,36.957 54.695 C 37.187 54.910,37.376 55.198,37.376 55.335 C 37.376 55.592,37.736 56.119,38.519 57.006 C 38.765 57.285,38.966 57.634,38.966 57.783 C 38.966 57.931,39.123 58.214,39.314 58.413 C 39.855 58.976,40.557 60.002,40.557 60.231 C 40.557 60.344,40.713 60.597,40.905 60.792 C 41.362 61.258,42.346 62.701,42.346 62.906 C 42.346 62.994,42.704 63.494,43.141 64.016 C 43.579 64.538,43.936 65.038,43.936 65.126 C 43.936 65.360,44.986 66.871,45.278 67.058 C 45.415 67.145,45.527 67.311,45.527 67.427 C 45.527 67.710,46.748 69.583,46.933 69.583 C 47.013 69.583,47.171 69.849,47.285 70.175 C 47.499 70.788,47.565 70.887,48.404 71.848 C 48.680 72.165,48.907 72.545,48.907 72.693 C 48.907 72.841,49.063 73.125,49.254 73.324 C 49.812 73.903,50.430 74.823,50.580 75.297 C 50.657 75.538,50.950 75.916,51.231 76.138 C 51.513 76.359,51.680 76.541,51.603 76.541 C 51.525 76.541,51.648 76.776,51.874 77.065 C 52.101 77.353,52.286 77.697,52.286 77.829 C 52.286 77.961,52.465 78.232,52.684 78.429 C 52.903 78.627,53.082 78.880,53.082 78.990 C 53.082 79.101,53.219 79.333,53.387 79.506 C 53.554 79.679,54.410 80.919,55.288 82.260 C 56.242 83.716,56.972 84.645,57.101 84.565 C 57.229 84.486,57.261 84.524,57.179 84.657 C 57.050 84.865,57.347 85.654,57.641 85.885 C 57.711 85.939,58.051 86.431,58.398 86.978 C 58.744 87.525,59.179 88.160,59.364 88.390 C 59.550 88.619,59.990 89.290,60.342 89.881 C 60.694 90.471,61.090 90.930,61.222 90.900 C 61.353 90.870,61.404 90.937,61.335 91.049 C 61.266 91.161,61.319 91.252,61.453 91.252 C 61.587 91.252,61.640 91.309,61.570 91.379 C 61.501 91.448,61.620 91.728,61.836 92.002 C 62.051 92.275,62.227 92.607,62.227 92.740 C 62.227 92.872,62.406 93.142,62.624 93.340 C 62.843 93.538,63.022 93.809,63.022 93.943 C 63.022 94.077,63.165 94.305,63.341 94.451 C 63.516 94.596,63.740 94.898,63.839 95.121 C 63.937 95.344,64.324 95.929,64.699 96.421 C 65.624 97.634,65.567 98.054,64.266 99.609 C 63.420 100.620,63.022 101.175,63.022 101.342 C 63.022 101.447,62.821 101.756,62.575 102.030 C 62.329 102.304,61.993 102.730,61.829 102.976 C 61.665 103.223,61.282 103.744,60.977 104.135 C 60.672 104.525,60.468 104.962,60.523 105.106 C 60.579 105.250,60.515 105.368,60.381 105.368 C 60.083 105.368,59.111 106.561,58.850 107.248 C 58.744 107.526,58.571 107.753,58.465 107.753 C 58.359 107.753,58.155 107.968,58.013 108.231 C 57.654 108.891,56.209 111.011,56.030 111.139 C 55.833 111.281,54.680 112.989,54.676 113.146 C 54.674 113.214,54.314 113.661,53.877 114.140 C 53.439 114.618,53.082 115.114,53.082 115.241 C 53.082 115.367,52.745 115.904,52.333 116.433 C 51.921 116.963,51.139 118.067,50.594 118.887 C 50.049 119.707,49.447 120.551,49.255 120.763 C 49.063 120.975,48.907 121.231,48.907 121.332 C 48.907 121.433,48.549 121.943,48.111 122.465 C 47.674 122.988,47.316 123.511,47.316 123.628 C 47.316 123.745,47.128 124.017,46.897 124.232 C 46.667 124.446,46.538 124.718,46.611 124.836 C 46.684 124.953,46.643 125.050,46.521 125.050 C 46.399 125.050,46.362 125.153,46.440 125.279 C 46.525 125.416,46.495 125.455,46.366 125.375 C 46.240 125.297,45.838 125.721,45.406 126.388 C 44.997 127.019,44.489 127.729,44.278 127.967 C 44.050 128.225,43.956 128.506,44.047 128.663 C 44.130 128.808,44.128 128.862,44.041 128.784 C 43.875 128.634,43.029 129.577,43.188 129.736 C 43.239 129.787,42.979 130.148,42.610 130.540 C 42.241 130.931,41.793 131.533,41.616 131.878 C 41.438 132.223,40.993 132.872,40.627 133.321 C 40.260 133.769,39.960 134.231,39.960 134.346 C 39.960 134.462,39.548 135.062,39.044 135.681 C 38.540 136.300,38.115 137.015,38.099 137.271 C 38.084 137.526,38.017 137.702,37.951 137.661 C 37.774 137.551,36.662 138.991,36.481 139.566 C 36.395 139.837,36.153 140.181,35.942 140.329 C 35.732 140.477,35.607 140.722,35.665 140.873 C 35.723 141.024,35.668 141.127,35.543 141.101 C 35.417 141.075,35.181 141.322,35.018 141.650 C 34.855 141.978,34.380 142.680,33.961 143.209 C 33.543 143.738,33.201 144.284,33.201 144.422 C 33.201 144.560,32.975 144.933,32.698 145.249 C 31.859 146.210,31.793 146.309,31.579 146.923 C 31.466 147.248,31.307 147.515,31.227 147.515 C 31.042 147.515,29.821 149.387,29.821 149.670 C 29.821 149.786,29.709 149.952,29.572 150.040 C 29.132 150.321,28.188 151.858,28.323 152.076 C 28.394 152.192,28.353 152.286,28.231 152.286 C 28.108 152.286,28.072 152.390,28.150 152.516 C 28.234 152.652,28.205 152.692,28.078 152.613 C 27.863 152.480,26.537 154.237,26.717 154.417 C 26.769 154.470,26.542 154.777,26.212 155.100 C 25.816 155.487,25.655 155.799,25.739 156.018 C 25.809 156.200,25.802 156.286,25.724 156.208 C 25.646 156.130,25.226 156.624,24.791 157.307 C 23.399 159.491,22.968 160.133,22.714 160.402 C 22.577 160.546,22.465 160.786,22.465 160.934 C 22.465 161.083,22.318 161.351,22.138 161.531 C 21.719 161.950,20.875 163.192,20.875 163.390 C 20.875 163.473,20.649 163.847,20.373 164.220 C 20.098 164.594,19.910 164.998,19.956 165.118 C 20.002 165.238,19.876 165.439,19.676 165.564 C 19.321 165.786,19.000 166.279,18.408 167.511 C 18.247 167.848,17.975 168.239,17.805 168.380 C 17.634 168.521,17.495 168.749,17.495 168.887 C 17.495 169.024,17.356 169.252,17.185 169.393 C 17.015 169.535,16.742 169.926,16.578 170.263 C 16.131 171.183,15.680 171.949,14.858 173.182 C 14.450 173.794,14.115 174.384,14.115 174.493 C 14.115 174.601,13.936 174.852,13.718 175.050 C 13.499 175.248,13.320 175.575,13.320 175.778 C 13.320 175.981,13.141 176.300,12.922 176.487 C 12.704 176.675,12.525 176.930,12.525 177.055 C 12.525 177.180,12.336 177.523,12.105 177.817 C 11.873 178.111,11.734 178.401,11.794 178.461 C 11.855 178.522,11.720 178.763,11.495 178.997 C 11.271 179.232,10.959 179.692,10.804 180.020 C 10.649 180.348,10.258 181.019,9.936 181.511 C 9.614 182.003,9.289 182.540,9.214 182.704 C 9.139 182.868,8.914 183.215,8.714 183.476 C 8.514 183.737,8.350 184.106,8.350 184.297 C 8.350 184.487,8.211 184.759,8.040 184.900 C 7.870 185.042,7.598 185.433,7.437 185.769 C 7.275 186.106,6.926 186.740,6.661 187.177 C 6.396 187.614,6.038 188.241,5.866 188.569 C 5.694 188.897,5.333 189.523,5.065 189.960 C 4.798 190.398,4.397 191.113,4.175 191.551 C 3.953 191.988,3.555 192.704,3.291 193.141 C 3.027 193.579,2.668 194.205,2.493 194.533 C 2.319 194.861,2.045 195.353,1.885 195.626 C 1.725 195.900,1.643 196.255,1.702 196.415 C 1.762 196.576,1.747 196.644,1.669 196.566 C 1.399 196.296,0.994 196.872,0.994 197.525 C 0.994 198.911,-1.128 198.807,27.134 198.807 L 52.649 198.807 53.263 197.973 C 53.601 197.514,53.877 196.991,53.877 196.811 C 53.877 196.631,54.056 196.321,54.274 196.123 C 54.493 195.925,54.672 195.582,54.672 195.360 C 54.672 195.138,54.853 194.763,55.075 194.527 C 55.297 194.291,55.498 193.823,55.522 193.487 C 55.547 193.151,55.650 192.891,55.752 192.910 C 55.854 192.928,56.060 192.674,56.210 192.346 C 56.359 192.018,56.569 191.615,56.674 191.451 C 56.780 191.287,57.005 190.885,57.175 190.557 C 57.344 190.229,57.699 189.602,57.965 189.165 C 58.230 188.728,58.576 188.094,58.735 187.758 C 58.893 187.421,59.162 187.030,59.332 186.888 C 59.503 186.747,59.642 186.486,59.642 186.308 C 59.643 186.130,60.002 185.467,60.440 184.835 C 60.879 184.203,61.256 183.471,61.278 183.209 C 61.299 182.947,61.377 182.770,61.451 182.815 C 61.648 182.937,61.977 182.480,62.129 181.872 C 62.203 181.580,62.380 181.296,62.523 181.241 C 62.666 181.186,62.888 180.822,63.017 180.431 C 63.146 180.041,63.325 179.722,63.415 179.722 C 63.506 179.722,63.681 179.476,63.805 179.175 C 63.930 178.874,64.250 178.270,64.517 177.833 C 64.784 177.396,65.103 176.814,65.226 176.541 C 65.540 175.845,65.623 175.706,66.352 174.662 C 66.707 174.154,66.998 173.665,66.998 173.575 C 66.998 173.486,67.171 173.193,67.383 172.924 C 67.595 172.654,67.829 172.195,67.902 171.903 C 67.975 171.611,68.113 171.372,68.208 171.372 C 68.304 171.372,68.563 171.036,68.785 170.626 C 69.277 169.718,69.574 169.237,70.030 168.614 C 70.221 168.352,70.378 167.981,70.378 167.791 C 70.378 167.600,70.565 167.320,70.793 167.168 C 71.022 167.016,71.223 166.655,71.241 166.365 C 71.258 166.076,71.356 165.853,71.458 165.872 C 71.560 165.890,71.776 165.637,71.939 165.310 C 72.102 164.983,72.346 164.603,72.483 164.467 C 72.619 164.330,72.790 163.949,72.862 163.620 C 72.935 163.291,73.074 163.022,73.173 163.022 C 73.271 163.022,73.555 162.652,73.803 162.200 C 74.518 160.898,74.667 160.662,75.018 160.274 C 75.199 160.073,75.348 159.765,75.348 159.589 C 75.348 159.412,75.433 159.216,75.536 159.152 C 75.781 159.001,76.938 157.286,76.938 157.074 C 76.938 156.985,77.105 156.699,77.309 156.438 C 77.512 156.178,77.742 155.761,77.820 155.513 C 77.898 155.265,78.233 154.773,78.564 154.420 C 78.896 154.066,79.286 153.502,79.433 153.165 C 79.579 152.828,79.838 152.437,80.008 152.296 C 80.179 152.154,80.318 151.929,80.318 151.796 C 80.318 151.662,80.497 151.391,80.716 151.193 C 80.934 150.995,81.113 150.712,81.113 150.564 C 81.113 150.416,81.292 150.141,81.511 149.954 C 81.730 149.767,81.909 149.513,81.909 149.390 C 81.909 149.267,82.090 148.956,82.313 148.700 C 82.535 148.444,82.672 148.117,82.617 147.974 C 82.562 147.831,82.609 147.714,82.722 147.714 C 82.834 147.714,82.862 147.602,82.783 147.465 C 82.704 147.329,82.714 147.284,82.805 147.366 C 82.975 147.520,83.698 146.980,83.698 146.699 C 83.698 146.612,83.989 146.124,84.344 145.615 C 85.206 144.380,85.608 143.757,86.005 143.042 C 86.187 142.714,86.458 142.374,86.607 142.286 C 86.757 142.199,86.879 142.011,86.879 141.870 C 86.879 141.728,87.058 141.450,87.276 141.252 C 87.495 141.055,87.674 140.785,87.674 140.654 C 87.674 140.523,87.875 140.182,88.121 139.895 C 88.935 138.948,89.463 138.210,89.463 138.021 C 89.463 137.919,89.645 137.670,89.868 137.469 C 90.090 137.267,90.228 136.986,90.173 136.844 C 90.119 136.702,90.170 136.607,90.288 136.633 C 90.571 136.695,91.897 134.831,91.745 134.585 C 91.680 134.480,91.705 134.394,91.800 134.394 C 91.895 134.394,92.173 134.207,92.418 133.978 L 92.864 133.563 93.354 134.128 C 93.624 134.438,93.977 134.834,94.139 135.007 C 94.301 135.180,94.433 135.422,94.433 135.546 C 94.433 135.669,94.836 136.264,95.328 136.868 C 95.820 137.472,96.223 138.043,96.223 138.137 C 96.223 138.231,96.402 138.470,96.620 138.668 C 96.839 138.866,97.018 139.113,97.018 139.218 C 97.018 139.322,97.376 139.835,97.813 140.358 C 98.250 140.880,98.608 141.399,98.608 141.511 C 98.608 141.622,98.966 142.167,99.404 142.720 C 99.841 143.273,100.199 143.802,100.199 143.896 C 100.199 143.989,100.601 144.584,101.093 145.218 C 101.585 145.851,101.988 146.451,101.988 146.551 C 101.988 146.650,102.346 147.184,102.783 147.737 C 103.221 148.291,103.579 148.840,103.579 148.958 C 103.579 149.077,103.727 149.338,103.909 149.538 C 104.260 149.926,104.408 150.162,105.123 151.464 C 105.372 151.916,105.656 152.286,105.756 152.286 C 105.856 152.286,105.999 152.479,106.074 152.716 C 106.149 152.952,106.557 153.645,106.981 154.256 C 107.406 154.868,107.753 155.450,107.753 155.551 C 107.753 155.652,107.902 155.898,108.084 156.099 C 108.461 156.515,108.804 157.078,109.236 157.988 C 109.401 158.336,109.629 158.678,109.742 158.748 C 109.854 158.817,110.080 159.194,110.243 159.584 C 110.406 159.974,110.704 160.438,110.905 160.614 C 111.105 160.790,111.236 161.033,111.195 161.153 C 111.154 161.273,111.257 161.486,111.425 161.625 C 111.592 161.764,111.730 162.001,111.730 162.152 C 111.730 162.302,111.898 162.594,112.104 162.800 C 112.310 163.006,112.586 163.498,112.716 163.893 C 112.847 164.289,113.028 164.612,113.120 164.612 C 113.212 164.612,113.566 165.186,113.908 165.887 C 114.249 166.588,114.659 167.270,114.819 167.402 C 114.979 167.535,115.109 167.797,115.109 167.986 C 115.109 168.174,115.280 168.483,115.489 168.672 C 115.698 168.861,115.929 169.254,116.002 169.546 C 116.173 170.228,116.490 170.607,116.753 170.444 C 116.867 170.374,116.901 170.411,116.828 170.529 C 116.680 170.769,116.894 171.303,117.603 172.465 C 117.870 172.903,118.218 173.536,118.377 173.873 C 118.535 174.209,118.804 174.601,118.975 174.742 C 119.145 174.883,119.284 175.147,119.284 175.328 C 119.284 175.509,119.440 175.878,119.631 176.149 C 119.987 176.655,120.418 177.388,120.972 178.429 C 121.146 178.757,121.505 179.384,121.770 179.821 C 122.036 180.258,122.396 180.920,122.572 181.291 C 122.748 181.663,123.020 182.094,123.176 182.250 C 123.332 182.406,123.459 182.692,123.459 182.886 C 123.459 183.080,123.638 183.400,123.857 183.598 C 124.076 183.796,124.254 184.111,124.254 184.298 C 124.254 184.485,124.428 184.859,124.640 185.128 C 124.852 185.397,125.081 185.842,125.150 186.115 C 125.219 186.389,125.473 186.829,125.715 187.094 C 125.957 187.358,126.128 187.709,126.095 187.873 C 126.063 188.037,126.256 188.407,126.525 188.696 C 126.794 188.985,126.960 189.275,126.895 189.341 C 126.829 189.407,126.917 189.618,127.090 189.810 C 127.263 190.002,127.465 190.401,127.539 190.698 C 127.613 190.994,127.794 191.336,127.942 191.459 C 128.089 191.582,128.311 191.988,128.435 192.362 C 128.558 192.736,128.734 193.042,128.827 193.042 C 128.919 193.042,129.051 193.301,129.121 193.618 C 129.190 193.934,129.421 194.351,129.634 194.543 C 129.846 194.735,130.020 195.058,130.020 195.259 C 130.020 195.461,130.190 195.796,130.397 196.004 C 130.605 196.211,130.835 196.658,130.910 196.996 C 130.984 197.335,131.159 197.680,131.299 197.762 C 131.438 197.845,131.658 198.114,131.787 198.360 L 132.022 198.807 158.768 198.807 C 176.824 198.807,185.638 198.740,185.898 198.601 C 186.435 198.314,186.427 197.011,185.885 196.521 C 185.666 196.323,185.487 196.002,185.487 195.808 C 185.487 195.615,185.360 195.328,185.204 195.172 C 185.048 195.017,184.781 194.585,184.611 194.214 C 184.441 193.843,184.211 193.405,184.099 193.241 C 183.988 193.077,183.805 192.719,183.693 192.445 C 183.581 192.172,183.273 191.590,183.009 191.153 C 182.745 190.716,182.379 190.022,182.197 189.612 C 182.015 189.202,181.795 188.867,181.710 188.867 C 181.624 188.867,181.492 188.621,181.417 188.321 C 181.243 187.626,180.928 187.245,180.662 187.409 C 180.549 187.479,180.513 187.444,180.583 187.330 C 180.731 187.091,180.353 185.885,180.130 185.885 C 180.048 185.885,179.834 185.549,179.654 185.139 C 179.474 184.729,179.109 184.036,178.842 183.598 C 178.575 183.161,178.222 182.512,178.056 182.157 C 177.890 181.802,177.670 181.511,177.566 181.511 C 177.463 181.511,177.317 181.265,177.242 180.965 C 177.068 180.270,176.753 179.889,176.488 180.053 C 176.370 180.125,176.340 180.085,176.417 179.960 C 176.565 179.721,176.181 178.782,175.547 177.833 C 175.328 177.505,175.016 176.952,174.853 176.604 C 174.691 176.256,174.467 175.915,174.354 175.845 C 174.241 175.775,174.013 175.434,173.846 175.086 C 173.263 173.868,172.859 173.186,172.432 172.695 C 172.194 172.423,172.054 172.148,172.119 172.083 C 172.184 172.017,172.043 171.783,171.805 171.561 C 171.567 171.339,171.372 170.993,171.372 170.792 C 171.372 170.360,170.908 169.920,170.675 170.131 C 170.586 170.212,170.577 170.167,170.656 170.030 C 170.734 169.893,170.699 169.781,170.577 169.781 C 170.454 169.781,170.415 169.683,170.489 169.564 C 170.563 169.444,170.434 169.090,170.202 168.776 C 169.971 168.463,169.781 168.128,169.781 168.031 C 169.781 167.934,169.602 167.693,169.384 167.495 C 169.165 167.297,168.986 166.970,168.986 166.768 C 168.986 166.567,168.816 166.231,168.608 166.024 C 168.400 165.816,168.170 165.455,168.096 165.222 C 168.022 164.989,167.750 164.587,167.492 164.329 C 167.233 164.071,167.077 163.804,167.145 163.737 C 167.212 163.669,167.073 163.433,166.834 163.211 C 166.596 162.989,166.402 162.662,166.402 162.483 C 166.402 162.305,166.253 161.994,166.071 161.794 C 165.696 161.379,165.353 160.817,164.923 159.915 C 164.760 159.573,164.490 159.240,164.322 159.175 C 164.153 159.111,164.016 158.906,164.016 158.721 C 164.016 158.340,162.413 155.867,162.165 155.866 C 162.077 155.865,162.064 155.768,162.137 155.651 C 162.209 155.533,162.080 155.261,161.850 155.047 C 161.620 154.832,161.431 154.495,161.431 154.297 C 161.431 154.100,161.252 153.776,161.034 153.579 C 160.815 153.381,160.636 153.112,160.636 152.982 C 160.636 152.852,160.457 152.584,160.239 152.386 C 160.020 152.188,159.841 151.906,159.841 151.758 C 159.841 151.611,159.684 151.333,159.493 151.140 C 159.302 150.948,159.030 150.567,158.889 150.295 C 158.200 148.967,157.683 148.269,157.482 148.393 C 157.413 148.436,157.343 148.249,157.326 147.977 C 157.310 147.706,157.109 147.284,156.879 147.039 C 156.649 146.795,156.461 146.508,156.461 146.403 C 156.461 146.298,156.282 146.058,156.064 145.871 C 155.845 145.684,155.666 145.386,155.666 145.210 C 155.666 145.033,155.465 144.642,155.219 144.341 C 154.973 144.039,154.643 143.606,154.487 143.378 C 154.330 143.150,154.115 143.017,154.009 143.083 C 153.897 143.152,153.880 143.098,153.969 142.954 C 154.059 142.809,153.947 142.469,153.701 142.136 C 153.470 141.823,153.280 141.485,153.280 141.384 C 153.280 141.284,153.132 141.079,152.951 140.929 C 152.770 140.779,152.501 140.365,152.352 140.010 C 152.204 139.655,151.999 139.364,151.897 139.364 C 151.721 139.364,151.587 139.157,150.769 137.626 C 150.580 137.272,150.261 136.930,150.061 136.866 C 149.860 136.803,149.748 136.666,149.813 136.562 C 149.877 136.458,149.699 136.100,149.418 135.766 C 149.137 135.432,148.907 135.061,148.907 134.942 C 148.907 134.823,148.777 134.584,148.618 134.410 C 147.783 133.501,147.594 133.249,147.367 132.743 C 147.104 132.159,147.023 132.044,146.228 131.134 C 145.952 130.817,145.726 130.451,145.726 130.319 C 145.726 129.975,145.015 129.206,144.850 129.371 C 144.773 129.448,144.768 129.362,144.837 129.181 C 144.919 128.967,144.818 128.760,144.549 128.592 C 144.322 128.450,144.134 128.243,144.132 128.133 C 144.128 127.927,143.035 126.239,142.783 126.050 C 142.706 125.992,142.378 125.542,142.053 125.050 C 141.729 124.558,141.125 123.740,140.712 123.233 C 140.298 122.726,139.960 122.227,139.960 122.126 C 139.960 121.808,138.695 120.278,138.433 120.278 C 138.296 120.278,138.229 120.161,138.284 120.017 C 138.339 119.873,138.135 119.435,137.830 119.045 C 137.526 118.655,137.142 118.133,136.978 117.887 C 136.814 117.640,136.479 117.214,136.233 116.941 C 135.987 116.667,135.785 116.357,135.785 116.252 C 135.785 116.082,135.258 115.351,134.530 114.513 C 134.388 114.349,133.940 113.707,133.536 113.085 C 133.131 112.464,132.533 111.688,132.205 111.361 C 131.878 111.034,131.610 110.719,131.610 110.661 C 131.610 110.466,130.421 108.794,129.840 108.171 C 129.522 107.831,128.950 107.083,128.568 106.510 C 128.187 105.936,127.664 105.239,127.407 104.960 C 127.149 104.682,126.718 104.129,126.448 103.733 C 126.178 103.336,125.873 103.064,125.771 103.127 C 125.669 103.191,125.648 103.140,125.725 103.016 C 125.805 102.887,125.306 102.080,124.570 101.146 C 122.514 98.537,122.465 98.465,122.466 98.080 C 122.466 97.878,122.823 97.222,123.258 96.620 C 123.694 96.019,124.141 95.321,124.251 95.069 C 124.362 94.817,124.765 94.200,125.148 93.698 C 125.531 93.196,125.845 92.671,125.845 92.530 C 125.845 92.390,125.992 92.128,126.172 91.948 C 126.648 91.472,127.375 90.364,127.528 89.881 C 127.601 89.651,127.729 89.463,127.813 89.463 C 127.969 89.463,129.225 87.621,129.225 87.392 C 129.225 87.322,129.587 86.806,130.030 86.246 C 130.472 85.686,130.788 85.107,130.732 84.960 C 130.675 84.812,130.721 84.692,130.833 84.692 C 130.945 84.692,130.974 84.589,130.896 84.462 C 130.811 84.326,130.841 84.287,130.968 84.365 C 131.191 84.503,132.506 82.738,132.319 82.551 C 132.261 82.493,132.422 82.258,132.677 82.028 C 132.932 81.798,133.426 81.118,133.775 80.517 C 134.124 79.916,134.713 79.021,135.084 78.529 C 135.455 78.037,135.765 77.536,135.772 77.416 C 135.779 77.297,135.964 77.037,136.183 76.839 C 136.402 76.641,136.581 76.386,136.581 76.272 C 136.581 76.030,137.517 74.626,138.022 74.112 C 138.213 73.917,138.370 73.676,138.370 73.576 C 138.370 73.315,139.407 71.769,139.583 71.769 C 139.664 71.769,139.831 71.464,139.954 71.091 C 140.078 70.718,140.308 70.363,140.467 70.302 C 140.626 70.241,140.755 70.068,140.755 69.918 C 140.755 69.767,140.934 69.482,141.153 69.284 C 141.372 69.086,141.551 68.795,141.551 68.636 C 141.551 68.477,141.752 68.097,141.998 67.790 C 142.966 66.584,143.162 66.286,143.270 65.855 C 143.332 65.609,143.448 65.408,143.527 65.408 C 143.711 65.408,144.930 63.533,144.930 63.250 C 144.930 63.132,145.109 62.940,145.328 62.823 C 145.547 62.706,145.726 62.520,145.726 62.410 C 145.726 62.300,145.915 61.954,146.147 61.641 C 146.378 61.328,146.507 60.974,146.433 60.854 C 146.359 60.734,146.399 60.636,146.521 60.636 C 146.643 60.636,146.679 60.533,146.601 60.407 C 146.517 60.270,146.546 60.231,146.674 60.310 C 146.930 60.468,149.986 55.965,149.813 55.685 C 149.749 55.581,149.860 55.444,150.061 55.380 C 150.261 55.316,150.579 54.975,150.768 54.620 C 151.367 53.491,151.617 53.094,151.975 52.698 C 152.168 52.485,152.271 52.224,152.205 52.117 C 152.139 52.010,152.158 51.893,152.247 51.856 C 152.500 51.752,154.076 49.691,154.076 49.464 C 154.076 49.353,154.277 49.011,154.523 48.705 C 155.468 47.527,155.666 47.227,155.666 46.976 C 155.666 46.833,155.845 46.563,156.064 46.375 C 156.282 46.188,156.461 45.949,156.461 45.843 C 156.461 45.738,156.645 45.456,156.870 45.217 C 157.094 44.978,157.309 44.525,157.346 44.210 C 157.384 43.896,157.505 43.658,157.615 43.682 C 157.921 43.748,158.887 42.378,158.919 41.833 C 158.934 41.569,159.052 41.352,159.181 41.352 C 159.440 41.352,160.522 39.837,160.730 39.184 C 160.802 38.955,160.947 38.767,161.052 38.767 C 161.157 38.767,161.333 38.566,161.444 38.320 C 161.746 37.648,162.556 36.350,162.761 36.208 C 163.144 35.943,164.029 34.177,163.895 33.944 C 163.817 33.808,163.828 33.765,163.918 33.847 C 164.111 34.022,164.811 33.444,164.811 33.111 C 164.811 32.891,165.026 32.572,165.954 31.415 C 166.200 31.108,166.402 30.781,166.403 30.687 C 166.403 30.593,166.806 29.935,167.296 29.225 C 167.787 28.514,168.189 27.825,168.190 27.694 C 168.190 27.563,168.303 27.384,168.440 27.296 C 168.731 27.110,169.781 25.599,169.781 25.366 C 169.781 25.229,170.126 24.754,170.989 23.703 C 171.103 23.564,171.290 23.184,171.403 22.859 C 171.517 22.533,171.675 22.266,171.755 22.266 C 171.940 22.266,173.161 20.394,173.161 20.111 C 173.161 19.995,173.273 19.829,173.410 19.741 C 173.626 19.604,174.176 18.814,174.856 17.664 C 174.962 17.484,175.342 16.919,175.699 16.408 C 176.056 15.897,176.296 15.395,176.234 15.294 C 176.171 15.192,176.220 15.109,176.342 15.109 C 176.464 15.109,176.508 15.018,176.438 14.906 C 176.369 14.794,176.423 14.726,176.557 14.757 C 176.692 14.787,176.945 14.547,177.119 14.224 C 177.293 13.902,177.592 13.460,177.783 13.243 C 177.975 13.025,178.131 12.730,178.131 12.587 C 178.131 12.443,178.225 12.326,178.340 12.326 C 178.455 12.326,178.674 12.028,178.826 11.664 C 178.978 11.300,179.242 10.886,179.412 10.745 C 179.582 10.604,179.722 10.379,179.722 10.245 C 179.722 10.111,179.904 9.837,180.126 9.636 C 180.356 9.428,180.480 9.138,180.414 8.965 C 180.350 8.797,180.358 8.722,180.433 8.797 C 180.579 8.942,181.312 8.114,181.312 7.803 C 181.312 7.700,181.491 7.454,181.710 7.256 C 181.928 7.059,182.107 6.794,182.107 6.668 C 182.107 6.542,182.331 6.136,182.604 5.765 C 183.162 5.010,183.240 4.242,182.819 3.666 C 182.491 3.218,133.301 2.928,131.809 3.366 C 131.169 3.554,130.347 4.498,130.325 5.070 C 130.321 5.179,130.121 5.493,129.880 5.767 C 129.640 6.042,129.207 6.713,128.919 7.259 C 128.631 7.804,128.224 8.435,128.015 8.661 C 127.805 8.887,127.634 9.219,127.634 9.399 C 127.634 9.579,127.439 9.908,127.201 10.129 C 126.963 10.351,126.824 10.588,126.891 10.655 C 126.959 10.723,126.796 11.014,126.528 11.302 C 126.261 11.590,126.069 11.905,126.102 12.002 C 126.134 12.099,125.910 12.429,125.605 12.734 C 125.300 13.040,125.050 13.466,125.050 13.681 C 125.050 13.897,124.929 14.119,124.782 14.176 C 124.634 14.232,124.267 14.756,123.965 15.340 C 123.663 15.924,123.254 16.581,123.055 16.799 C 122.856 17.018,122.634 17.436,122.561 17.729 C 122.489 18.022,122.294 18.313,122.128 18.377 C 121.955 18.443,121.877 18.623,121.945 18.799 C 122.010 18.968,121.991 19.062,121.903 19.007 C 121.718 18.893,120.982 20.055,121.140 20.212 C 121.198 20.270,120.983 20.574,120.663 20.888 C 120.342 21.201,120.080 21.549,120.080 21.661 C 120.080 21.773,119.722 22.380,119.285 23.010 C 118.847 23.640,118.489 24.308,118.489 24.496 C 118.489 24.683,118.310 24.933,118.091 25.050 C 117.873 25.167,117.694 25.381,117.694 25.527 C 117.694 25.672,117.505 26.032,117.274 26.326 C 117.042 26.619,116.907 26.913,116.972 26.978 C 117.037 27.044,116.923 27.242,116.718 27.420 C 116.513 27.598,116.206 28.076,116.036 28.484 C 115.865 28.891,115.638 29.225,115.530 29.225 C 115.423 29.225,115.273 29.421,115.197 29.661 C 115.120 29.901,114.752 30.532,114.379 31.063 C 114.005 31.595,113.616 32.250,113.514 32.519 C 113.325 33.014,112.641 34.052,112.166 34.563 C 112.023 34.717,111.947 34.950,111.997 35.082 C 112.048 35.214,111.882 35.477,111.629 35.667 C 111.376 35.857,111.109 36.252,111.036 36.545 C 110.962 36.838,110.730 37.238,110.521 37.433 C 110.311 37.629,110.139 37.906,110.139 38.049 C 110.139 38.191,109.960 38.470,109.742 38.668 C 109.523 38.866,109.344 39.163,109.344 39.328 C 109.344 39.493,109.208 39.770,109.041 39.944 C 108.639 40.361,107.753 41.725,107.753 41.927 C 107.753 42.014,107.572 42.296,107.349 42.552 C 107.127 42.809,106.988 43.130,107.040 43.266 C 107.092 43.402,107.065 43.541,106.979 43.576 C 106.746 43.669,105.378 45.674,105.165 46.233 C 105.063 46.501,104.897 46.720,104.796 46.720 C 104.694 46.720,104.522 46.977,104.412 47.291 C 104.303 47.605,103.912 48.298,103.543 48.832 C 103.175 49.365,102.758 50.025,102.616 50.298 C 102.120 51.257,101.678 51.998,100.941 53.102 C 100.533 53.715,100.199 54.308,100.199 54.420 C 100.199 54.532,100.059 54.739,99.889 54.880 C 99.719 55.022,99.447 55.413,99.286 55.750 C 98.729 56.908,98.387 57.455,98.219 57.455 C 97.983 57.455,97.592 58.650,97.747 58.900 C 97.818 59.015,97.779 59.048,97.661 58.975 C 97.458 58.850,96.223 60.448,96.223 60.835 C 96.223 60.933,96.013 61.240,95.756 61.517 L 95.289 62.021 95.059 61.516 C 94.933 61.238,94.741 61.066,94.634 61.132 C 94.518 61.204,94.491 61.114,94.569 60.912 C 94.657 60.682,94.625 60.617,94.469 60.713 C 94.326 60.802,94.278 60.754,94.343 60.584 C 94.401 60.435,94.265 60.148,94.043 59.947 C 93.820 59.745,93.638 59.490,93.638 59.379 C 93.638 59.095,91.982 56.662,91.787 56.661 C 91.699 56.660,91.684 56.567,91.755 56.453 C 91.925 56.178,91.464 55.635,91.199 55.798 C 91.079 55.873,91.052 55.830,91.134 55.697 C 91.212 55.570,91.176 55.467,91.054 55.467 C 90.931 55.467,90.887 55.377,90.955 55.266 C 91.024 55.156,90.895 54.831,90.669 54.544 C 90.443 54.257,90.258 53.914,90.258 53.781 C 90.258 53.649,90.080 53.379,89.861 53.181 C 89.642 52.983,89.463 52.736,89.463 52.631 C 89.463 52.360,88.233 50.497,88.054 50.497 C 87.972 50.497,87.847 50.237,87.778 49.920 C 87.708 49.602,87.438 49.182,87.177 48.987 C 86.917 48.791,86.745 48.565,86.795 48.484 C 86.890 48.330,86.106 47.039,85.591 46.504 C 85.425 46.331,85.288 46.054,85.288 45.888 C 85.288 45.723,85.109 45.381,84.891 45.129 C 84.672 44.877,84.493 44.609,84.493 44.533 C 84.493 44.248,83.750 43.552,83.596 43.691 C 83.508 43.772,83.503 43.720,83.585 43.577 C 83.674 43.423,83.535 43.015,83.248 42.583 C 82.979 42.179,82.552 41.491,82.299 41.054 C 82.046 40.616,81.676 40.098,81.476 39.903 C 81.277 39.707,81.113 39.377,81.113 39.169 C 81.113 38.961,81.020 38.733,80.906 38.663 C 80.648 38.503,79.708 37.062,79.386 36.332 C 79.253 36.031,79.051 35.785,78.936 35.785 C 78.821 35.785,78.727 35.673,78.726 35.537 C 78.726 35.400,78.324 34.707,77.833 33.996 C 77.342 33.285,76.940 32.598,76.940 32.469 C 76.939 32.341,76.827 32.117,76.690 31.972 C 76.255 31.513,75.348 30.106,75.348 29.891 C 75.348 29.777,75.169 29.522,74.950 29.324 C 74.732 29.126,74.553 28.879,74.553 28.774 C 74.553 28.508,73.324 26.640,73.149 26.640 C 73.070 26.640,72.944 26.395,72.868 26.095 C 72.712 25.473,72.385 25.014,72.186 25.138 C 72.111 25.183,72.037 25.041,72.021 24.821 C 71.987 24.375,71.595 23.819,71.399 23.939 C 71.329 23.982,71.259 23.795,71.243 23.524 C 71.226 23.253,71.025 22.830,70.795 22.586 C 70.566 22.341,70.378 22.078,70.378 22.001 C 70.378 21.802,69.316 20.193,69.130 20.111 C 69.046 20.074,68.850 19.740,68.695 19.370 C 68.414 18.698,68.246 18.451,67.495 17.606 C 67.276 17.360,67.076 16.968,67.051 16.734 C 67.025 16.499,66.824 16.128,66.603 15.907 C 66.383 15.687,66.203 15.422,66.203 15.318 C 66.203 15.214,65.912 14.713,65.557 14.204 C 65.201 13.696,64.843 13.154,64.761 13.002 C 64.014 11.608,63.383 10.735,63.203 10.846 C 63.106 10.906,63.085 10.802,63.157 10.614 C 63.253 10.364,63.218 10.316,63.025 10.435 C 62.846 10.546,62.809 10.522,62.909 10.360 C 63.073 10.094,62.493 9.080,62.259 9.224 C 62.177 9.275,62.096 9.127,62.079 8.895 C 62.061 8.663,61.864 8.226,61.640 7.923 C 61.416 7.620,61.233 7.282,61.233 7.172 C 61.233 7.062,61.054 6.876,60.835 6.759 C 60.616 6.642,60.437 6.377,60.437 6.170 C 60.437 5.963,60.315 5.671,60.165 5.521 C 60.015 5.372,59.742 4.959,59.559 4.604 C 58.760 3.060,61.190 3.182,31.452 3.182 L 4.952 3.181 4.464 3.669 M271.869 40.557 C 271.945 40.681,273.882 40.755,277.019 40.755 C 281.197 40.755,282.152 40.808,282.674 41.069 C 283.020 41.241,283.610 41.356,283.987 41.323 C 284.363 41.291,284.735 41.329,284.814 41.407 C 284.892 41.486,285.897 41.551,287.045 41.551 C 288.687 41.551,289.209 41.619,289.488 41.871 C 289.708 42.070,290.352 42.230,291.193 42.294 C 291.996 42.355,292.687 42.521,292.896 42.703 C 293.089 42.872,293.760 43.051,294.387 43.103 C 295.077 43.159,295.714 43.342,296.001 43.566 C 296.262 43.770,296.719 43.936,297.018 43.936 C 297.316 43.936,297.788 44.115,298.066 44.334 C 298.344 44.553,298.657 44.732,298.762 44.732 C 298.867 44.732,299.192 44.920,299.485 45.151 C 299.778 45.381,300.230 45.583,300.489 45.598 C 300.749 45.614,300.946 45.710,300.928 45.812 C 300.910 45.914,301.163 46.129,301.491 46.289 C 302.814 46.937,305.249 49.086,307.476 51.568 C 307.925 52.068,308.256 52.513,308.212 52.557 C 308.113 52.656,309.005 54.040,309.488 54.540 C 309.682 54.740,309.814 55.035,309.781 55.195 C 309.747 55.354,309.893 55.772,310.103 56.122 C 310.314 56.473,310.535 57.147,310.594 57.620 C 310.653 58.093,310.844 58.637,311.017 58.828 C 311.222 59.055,311.333 59.552,311.334 60.254 C 311.337 61.665,311.538 62.842,311.753 62.709 C 311.847 62.651,311.874 62.733,311.813 62.892 C 311.752 63.051,311.798 63.240,311.915 63.312 C 312.296 63.547,312.196 70.569,311.804 71.001 C 311.575 71.255,311.452 71.893,311.379 73.204 C 311.300 74.609,311.185 75.166,310.895 75.539 C 310.683 75.810,310.528 76.296,310.545 76.632 C 310.593 77.545,310.569 77.636,310.139 78.131 C 309.920 78.383,309.742 78.833,309.742 79.131 C 309.742 79.429,309.611 79.781,309.451 79.914 C 309.291 80.047,309.102 80.348,309.031 80.585 C 308.959 80.821,308.722 81.209,308.505 81.447 C 308.287 81.685,308.145 81.989,308.189 82.121 C 308.321 82.517,304.355 86.717,303.490 87.098 C 303.265 87.197,302.679 87.585,302.187 87.960 C 301.695 88.335,301.192 88.648,301.071 88.655 C 300.949 88.662,300.621 88.847,300.343 89.066 C 300.065 89.284,299.707 89.463,299.548 89.463 C 299.389 89.463,299.045 89.629,298.784 89.832 C 298.523 90.035,297.970 90.263,297.554 90.340 C 297.138 90.417,296.749 90.608,296.688 90.766 C 296.627 90.924,296.332 91.054,296.032 91.054 C 295.380 91.054,294.235 91.428,294.235 91.642 C 294.235 91.725,293.695 91.843,293.035 91.902 C 292.375 91.962,291.617 92.154,291.352 92.328 C 291.086 92.502,290.513 92.644,290.078 92.644 C 289.644 92.644,289.240 92.722,289.181 92.816 C 289.123 92.911,288.855 92.946,288.586 92.895 C 288.317 92.843,287.809 92.945,287.457 93.120 C 287.062 93.318,286.310 93.439,285.490 93.439 C 284.759 93.439,284.099 93.502,284.023 93.578 C 283.946 93.655,283.498 93.694,283.027 93.665 C 282.456 93.630,281.899 93.753,281.359 94.035 C 280.559 94.451,280.375 94.458,267.859 94.495 L 255.169 94.533 255.169 67.893 L 255.169 41.252 256.219 41.236 C 256.797 41.227,257.374 41.115,257.501 40.988 C 257.669 40.820,259.521 40.755,264.143 40.755 C 268.202 40.755,270.598 40.683,270.676 40.557 C 270.744 40.447,271.012 40.358,271.272 40.358 C 271.533 40.358,271.801 40.447,271.869 40.557 M344.411 167.893 C 344.412 169.314,344.443 169.870,344.482 169.127 C 344.520 168.384,344.520 167.221,344.481 166.542 C 344.442 165.864,344.411 166.471,344.411 167.893 " stroke="none" fill="#444444" fill-rule="evenodd"></path><path id="path1" d="M249.751 1.735 C 250.162 1.778,250.833 1.778,251.243 1.735 C 251.653 1.692,251.317 1.657,250.497 1.657 C 249.677 1.657,249.341 1.692,249.751 1.735 M281.961 1.733 C 282.263 1.779,282.710 1.778,282.955 1.730 C 283.200 1.683,282.952 1.646,282.406 1.647 C 281.859 1.649,281.659 1.687,281.961 1.733 M366.426 140.948 C 366.056 141.039,365.698 141.198,365.630 141.302 C 365.562 141.406,364.994 141.549,364.366 141.621 C 363.739 141.693,362.934 141.930,362.577 142.148 C 362.220 142.365,361.739 142.544,361.508 142.544 C 361.277 142.544,360.860 142.724,360.582 142.942 C 360.304 143.161,359.946 143.340,359.787 143.340 C 359.627 143.340,359.269 143.519,358.991 143.738 C 358.713 143.956,358.417 144.135,358.333 144.135 C 357.130 144.135,350.883 149.715,349.201 152.291 C 348.713 153.040,348.223 153.709,348.113 153.777 C 348.003 153.845,347.913 154.062,347.913 154.259 C 347.913 154.457,347.739 154.839,347.527 155.108 C 347.315 155.378,347.083 155.833,347.011 156.121 C 346.939 156.408,346.753 156.748,346.599 156.877 C 346.445 157.005,346.263 157.456,346.195 157.879 C 346.128 158.302,346.009 158.648,345.931 158.648 C 345.699 158.648,345.328 159.619,345.328 160.226 C 345.328 160.537,345.151 161.182,344.935 161.658 C 344.329 162.994,344.325 173.873,344.930 175.002 C 345.149 175.410,345.328 176.090,345.328 176.513 C 345.328 176.959,345.483 177.481,345.697 177.756 C 345.900 178.017,346.127 178.563,346.202 178.970 C 346.276 179.376,346.461 179.832,346.612 179.984 C 346.763 180.135,346.987 180.630,347.109 181.083 C 347.231 181.537,347.411 181.909,347.509 181.909 C 347.607 181.909,347.747 182.110,347.820 182.356 C 348.012 183.006,348.871 184.295,349.842 185.394 C 350.038 185.617,350.455 186.153,350.769 186.587 C 351.542 187.655,354.455 190.457,354.794 190.457 C 354.944 190.457,355.178 190.636,355.315 190.855 C 355.451 191.074,355.670 191.252,355.802 191.252 C 355.933 191.252,356.158 191.410,356.301 191.603 C 356.582 191.983,360.080 193.837,360.515 193.837 C 360.662 193.837,361.009 194.016,361.287 194.235 C 361.565 194.453,361.914 194.632,362.062 194.632 C 362.211 194.632,362.669 194.813,363.081 195.034 C 363.492 195.254,364.386 195.492,365.066 195.562 C 365.746 195.632,366.522 195.831,366.790 196.005 C 367.518 196.477,376.618 196.477,377.345 196.005 C 377.613 195.831,378.389 195.632,379.069 195.562 C 379.749 195.492,380.643 195.254,381.055 195.034 C 381.466 194.813,381.949 194.632,382.127 194.632 C 382.306 194.632,382.679 194.453,382.957 194.235 C 383.235 194.016,383.680 193.837,383.947 193.837 C 384.213 193.837,384.593 193.658,384.791 193.439 C 384.989 193.221,385.304 193.042,385.491 193.042 C 385.678 193.042,386.044 192.876,386.305 192.674 C 386.566 192.472,387.003 192.251,387.276 192.182 C 387.550 192.113,388.194 191.675,388.709 191.207 C 389.223 190.740,389.849 190.206,390.100 190.019 C 390.807 189.495,391.896 188.590,392.085 188.370 C 392.179 188.260,392.681 187.634,393.201 186.978 C 393.720 186.322,394.522 185.383,394.983 184.891 C 395.443 184.399,395.821 183.846,395.823 183.662 C 395.824 183.479,395.977 183.177,396.162 182.992 C 396.591 182.563,397.613 180.521,397.614 180.091 C 397.614 179.911,397.744 179.715,397.902 179.654 C 398.060 179.593,398.252 179.204,398.328 178.788 C 398.405 178.372,398.634 177.720,398.836 177.339 C 399.039 176.958,399.205 176.256,399.205 175.780 C 399.205 175.215,399.343 174.738,399.602 174.408 C 400.173 173.682,400.219 163.821,399.655 163.016 C 399.457 162.734,399.258 161.953,399.187 161.181 C 399.112 160.361,398.937 159.696,398.737 159.475 C 398.557 159.277,398.408 158.897,398.407 158.632 C 398.405 158.368,398.274 157.927,398.116 157.654 C 397.827 157.153,397.776 157.050,397.287 155.964 C 397.140 155.636,396.842 155.099,396.625 154.771 C 396.409 154.443,396.086 153.839,395.907 153.429 C 395.729 153.019,395.518 152.684,395.439 152.684 C 395.360 152.684,395.019 152.257,394.681 151.735 C 394.343 151.214,393.858 150.557,393.604 150.276 C 393.349 149.995,392.864 149.460,392.526 149.087 C 391.458 147.911,389.047 145.924,388.687 145.924 C 388.575 145.924,388.391 145.753,388.279 145.543 C 388.167 145.333,387.805 145.102,387.475 145.030 C 387.145 144.957,386.922 144.822,386.979 144.729 C 387.037 144.637,386.769 144.447,386.385 144.308 C 386.000 144.169,385.686 143.995,385.686 143.921 C 385.686 143.846,385.395 143.669,385.040 143.527 C 384.684 143.384,384.180 143.105,383.920 142.906 C 383.659 142.707,383.222 142.545,382.949 142.545 C 382.676 142.545,382.157 142.362,381.797 142.139 C 381.436 141.916,380.665 141.679,380.083 141.611 C 379.502 141.543,378.806 141.346,378.538 141.172 C 377.989 140.815,367.734 140.625,366.426 140.948 " stroke="none" fill="#04b444" fill-rule="evenodd"></path></g></svg>