<svg id="svg" version="1.1" xmlns="http://www.w3.org/2000/svg" xmlns:xlink="http://www.w3.org/1999/xlink" width="400" height="125.73673870333988" viewBox="0, 0, 400,125.73673870333988"><g id="svgg"><path id="path0" d="M31.809 0.824 C 29.123 0.900,28.479 0.965,28.225 1.186 C 28.021 1.365,27.438 1.493,26.500 1.566 C 25.535 1.640,24.950 1.772,24.667 1.977 C 24.438 2.144,23.805 2.325,23.261 2.381 C 22.657 2.443,22.093 2.615,21.810 2.824 C 21.555 3.013,21.189 3.167,20.996 3.167 C 20.608 3.167,20.044 3.432,19.700 3.776 C 19.577 3.899,19.313 4.001,19.113 4.002 C 18.913 4.004,18.563 4.114,18.333 4.248 C 18.104 4.382,17.657 4.613,17.339 4.763 C 17.021 4.912,16.684 5.131,16.589 5.249 C 16.494 5.367,16.135 5.552,15.792 5.661 C 15.448 5.770,15.167 5.917,15.167 5.989 C 15.167 6.060,14.735 6.385,14.208 6.712 C 13.020 7.448,12.687 7.730,10.913 9.500 C 8.566 11.842,8.000 12.449,8.000 12.625 C 8.000 12.717,7.876 12.895,7.724 13.021 C 7.572 13.147,7.346 13.494,7.222 13.792 C 7.097 14.090,6.934 14.333,6.859 14.333 C 6.685 14.333,5.667 15.898,5.667 16.166 C 5.667 16.277,5.479 16.591,5.250 16.864 C 5.021 17.136,4.833 17.517,4.833 17.710 C 4.833 17.904,4.680 18.225,4.493 18.424 C 4.306 18.623,4.107 19.078,4.049 19.434 C 3.992 19.791,3.802 20.278,3.627 20.516 C 3.452 20.754,3.264 21.279,3.211 21.683 C 3.157 22.086,2.967 22.615,2.789 22.857 C 2.574 23.147,2.434 23.684,2.373 24.440 C 2.314 25.177,2.171 25.733,1.970 26.005 C 1.723 26.340,1.639 26.838,1.564 28.422 C 1.500 29.762,1.378 30.608,1.193 31.000 C 0.748 31.940,0.769 122.507,1.214 122.952 C 1.495 123.233,2.220 123.250,13.668 123.250 L 25.824 123.250 26.204 122.870 L 26.583 122.491 26.626 91.579 L 26.669 60.667 39.960 60.659 C 53.014 60.652,54.563 60.599,54.851 60.144 C 55.177 59.629,55.028 39.911,54.696 39.610 C 54.420 39.360,53.141 39.331,40.571 39.293 L 26.750 39.250 26.773 35.283 C 26.794 31.779,26.830 31.280,27.085 30.998 C 27.243 30.823,27.411 30.321,27.457 29.882 C 27.503 29.443,27.676 28.933,27.842 28.750 C 28.007 28.567,28.198 28.192,28.266 27.917 C 28.412 27.323,31.215 24.446,31.837 24.250 C 32.064 24.179,32.429 23.981,32.647 23.810 C 32.866 23.640,33.212 23.500,33.417 23.500 C 33.621 23.500,33.967 23.360,34.186 23.189 C 34.482 22.957,35.008 22.847,36.250 22.758 C 37.167 22.692,38.134 22.532,38.401 22.402 C 38.970 22.125,40.687 22.087,40.947 22.347 C 41.142 22.542,43.750 22.818,45.487 22.827 C 46.225 22.831,46.648 22.916,46.850 23.098 C 47.015 23.248,47.712 23.440,48.446 23.539 C 49.163 23.636,49.875 23.823,50.029 23.955 C 50.182 24.087,50.632 24.236,51.029 24.286 C 51.425 24.335,51.917 24.528,52.122 24.715 C 52.388 24.956,52.712 25.050,53.254 25.041 C 54.606 25.021,55.000 24.493,55.000 22.698 C 55.000 22.159,55.100 21.831,55.345 21.571 C 55.609 21.290,55.713 20.898,55.788 19.894 C 55.855 19.002,55.985 18.449,56.196 18.164 C 56.392 17.898,56.543 17.318,56.608 16.580 C 56.666 15.930,56.820 15.291,56.958 15.133 C 57.093 14.976,57.290 14.219,57.394 13.449 C 57.498 12.679,57.690 11.921,57.820 11.765 C 57.950 11.609,58.102 10.942,58.158 10.283 C 58.220 9.556,58.378 8.907,58.559 8.636 C 58.945 8.058,59.108 6.004,58.844 5.034 C 58.637 4.271,58.244 4.000,57.345 4.000 C 57.088 4.000,56.671 3.837,56.417 3.637 C 56.110 3.395,55.641 3.248,55.019 3.198 C 54.488 3.156,54.027 3.027,53.954 2.902 C 53.784 2.612,52.769 2.335,51.868 2.334 C 51.424 2.334,50.982 2.210,50.702 2.006 C 50.390 1.781,49.836 1.643,48.917 1.564 C 48.162 1.499,47.406 1.334,47.175 1.183 C 46.521 0.758,39.712 0.599,31.809 0.824 M95.714 37.823 C 95.328 37.886,94.878 38.055,94.714 38.199 C 94.521 38.369,93.966 38.487,93.124 38.538 C 92.184 38.595,91.739 38.700,91.493 38.923 C 91.290 39.106,90.752 39.277,90.151 39.348 C 89.599 39.413,89.018 39.583,88.861 39.725 C 88.703 39.868,88.246 40.037,87.845 40.101 C 87.444 40.165,86.988 40.346,86.831 40.503 C 86.674 40.659,86.283 40.837,85.961 40.897 C 85.639 40.958,85.214 41.148,85.016 41.319 C 84.818 41.491,84.392 41.681,84.069 41.742 C 83.747 41.802,83.443 41.956,83.394 42.082 C 83.345 42.209,83.093 42.360,82.833 42.417 C 82.572 42.474,82.162 42.704,81.921 42.927 C 81.680 43.150,81.341 43.333,81.168 43.333 C 80.995 43.333,80.805 43.411,80.746 43.507 C 80.645 43.669,79.969 44.151,78.775 44.912 C 78.492 45.093,78.137 45.355,77.987 45.495 C 77.837 45.635,77.353 46.050,76.911 46.417 C 74.959 48.037,72.333 50.582,72.333 50.853 C 72.333 50.913,71.877 51.436,71.318 52.015 C 70.760 52.595,70.179 53.302,70.027 53.587 C 69.530 54.516,68.970 55.333,68.830 55.333 C 68.754 55.333,68.600 55.615,68.487 55.958 C 68.375 56.302,68.144 56.681,67.974 56.801 C 67.805 56.921,67.667 57.150,67.667 57.310 C 67.667 57.471,67.479 57.856,67.250 58.167 C 67.021 58.477,66.833 58.799,66.833 58.881 C 66.833 58.963,66.690 59.214,66.514 59.437 C 66.338 59.660,66.145 60.137,66.084 60.495 C 66.024 60.854,65.868 61.236,65.738 61.343 C 65.608 61.451,65.420 61.846,65.318 62.222 C 65.217 62.598,64.992 63.086,64.817 63.308 C 64.617 63.563,64.500 63.976,64.500 64.427 C 64.500 64.840,64.395 65.248,64.251 65.392 C 63.890 65.753,63.667 66.428,63.667 67.157 C 63.667 67.507,63.562 67.879,63.435 67.985 C 63.115 68.250,62.833 69.465,62.833 70.581 C 62.833 71.266,62.741 71.639,62.485 71.985 C 62.161 72.423,62.130 72.740,62.043 76.484 C 61.991 78.699,61.886 80.551,61.808 80.599 C 61.609 80.722,61.631 82.458,61.833 82.583 C 61.933 82.645,62.004 83.833,62.010 85.552 C 62.024 89.198,62.197 91.074,62.559 91.473 C 62.741 91.675,62.835 92.079,62.837 92.680 C 62.842 93.762,63.103 94.983,63.404 95.331 C 63.524 95.470,63.666 96.024,63.718 96.562 C 63.782 97.223,63.925 97.659,64.157 97.906 C 64.373 98.137,64.500 98.495,64.500 98.878 C 64.500 99.513,64.793 100.333,65.019 100.333 C 65.092 100.333,65.199 100.615,65.258 100.958 C 65.317 101.302,65.502 101.779,65.670 102.019 C 65.839 102.259,66.028 102.728,66.090 103.062 C 66.153 103.396,66.346 103.849,66.519 104.069 C 66.692 104.289,66.833 104.534,66.833 104.613 C 66.833 104.691,67.021 105.032,67.250 105.369 C 67.479 105.706,67.667 106.087,67.667 106.215 C 67.667 106.343,67.814 106.582,67.994 106.744 C 68.174 106.907,68.404 107.294,68.507 107.603 C 68.609 107.913,68.761 108.167,68.845 108.167 C 68.929 108.167,69.129 108.419,69.290 108.727 C 69.778 109.660,70.460 110.616,71.079 111.235 C 71.402 111.558,71.667 111.867,71.667 111.921 C 71.667 112.296,76.186 117.000,76.546 117.000 C 76.626 117.000,77.328 117.525,78.106 118.167 C 78.885 118.808,79.664 119.333,79.838 119.333 C 80.013 119.333,80.235 119.482,80.332 119.665 C 80.430 119.847,80.689 120.041,80.909 120.096 C 81.129 120.152,81.438 120.340,81.597 120.515 C 81.755 120.690,82.012 120.833,82.168 120.833 C 82.324 120.833,82.654 121.021,82.901 121.250 C 83.148 121.479,83.523 121.667,83.733 121.667 C 83.943 121.667,84.249 121.815,84.414 121.997 C 84.578 122.178,84.965 122.374,85.274 122.432 C 85.583 122.490,86.026 122.687,86.257 122.869 C 86.489 123.051,86.994 123.242,87.381 123.293 C 87.767 123.345,88.273 123.526,88.504 123.697 C 88.735 123.867,89.335 124.053,89.837 124.109 C 90.339 124.165,90.868 124.313,91.012 124.438 C 91.294 124.682,92.731 125.000,93.553 125.000 C 93.833 125.000,94.377 125.153,94.763 125.339 C 95.689 125.788,111.241 125.786,112.000 125.337 C 112.229 125.201,113.074 125.006,113.878 124.902 C 114.771 124.787,115.456 124.607,115.641 124.440 C 115.807 124.290,116.204 124.167,116.522 124.167 C 116.841 124.167,117.472 123.987,117.926 123.768 C 118.379 123.549,119.041 123.327,119.396 123.275 C 119.751 123.223,120.168 123.066,120.323 122.926 C 120.478 122.786,120.863 122.583,121.177 122.475 C 121.492 122.368,121.929 122.142,122.147 121.973 C 122.366 121.805,122.662 121.667,122.805 121.667 C 122.948 121.667,123.332 121.496,123.658 121.288 C 124.727 120.603,124.909 120.499,125.601 120.181 C 125.977 120.008,126.327 119.756,126.379 119.621 C 126.431 119.486,126.684 119.323,126.942 119.259 C 127.375 119.150,128.917 117.983,129.500 117.323 C 129.637 117.168,129.852 117.010,129.976 116.972 C 130.323 116.869,133.027 114.344,133.675 113.518 C 134.323 112.695,134.705 112.248,135.688 111.167 C 136.063 110.754,136.476 110.171,136.605 109.871 C 136.735 109.571,136.955 109.196,137.093 109.038 C 137.725 108.317,138.131 107.717,138.246 107.333 C 138.315 107.104,138.505 106.767,138.668 106.583 C 138.831 106.400,139.017 106.001,139.081 105.697 C 139.145 105.393,139.305 105.103,139.435 105.053 C 139.565 105.003,139.753 104.639,139.853 104.243 C 139.952 103.847,140.135 103.484,140.258 103.437 C 140.381 103.390,140.531 103.090,140.590 102.772 C 140.650 102.453,140.879 101.836,141.099 101.401 C 141.320 100.966,141.500 100.432,141.500 100.215 C 141.500 99.998,141.643 99.617,141.818 99.368 C 141.994 99.120,142.188 98.542,142.250 98.083 C 142.312 97.625,142.468 97.132,142.597 96.988 C 142.857 96.697,143.167 95.272,143.167 94.365 C 143.167 94.040,143.296 93.633,143.456 93.457 C 143.684 93.205,143.767 92.692,143.850 91.027 C 143.929 89.426,144.031 88.776,144.269 88.333 C 144.751 87.439,144.752 75.896,144.270 75.000 C 144.037 74.568,143.928 73.900,143.848 72.417 C 143.776 71.068,143.653 70.254,143.471 69.917 C 143.323 69.642,143.127 68.832,143.036 68.117 C 142.945 67.402,142.756 66.690,142.616 66.534 C 142.476 66.378,142.312 65.950,142.251 65.583 C 142.110 64.725,141.833 64.000,141.646 64.000 C 141.566 64.000,141.500 63.786,141.500 63.525 C 141.500 63.263,141.325 62.720,141.111 62.316 C 140.898 61.913,140.673 61.333,140.613 61.028 C 140.552 60.723,140.352 60.281,140.168 60.047 C 139.984 59.813,139.833 59.492,139.833 59.333 C 139.833 59.175,139.692 58.865,139.518 58.645 C 139.345 58.425,139.082 57.983,138.934 57.664 C 138.786 57.345,138.482 56.783,138.260 56.417 C 138.038 56.050,137.728 55.525,137.572 55.250 C 137.415 54.975,136.999 54.404,136.646 53.980 C 136.294 53.557,135.948 53.057,135.878 52.870 C 135.429 51.673,128.355 44.833,127.566 44.833 C 127.445 44.833,127.265 44.683,127.167 44.500 C 127.069 44.317,126.908 44.167,126.810 44.167 C 126.712 44.167,126.409 43.979,126.136 43.750 C 125.864 43.521,125.538 43.333,125.412 43.333 C 125.287 43.333,124.982 43.146,124.734 42.917 C 124.487 42.688,124.160 42.500,124.008 42.500 C 123.856 42.500,123.477 42.313,123.167 42.083 C 122.856 41.854,122.441 41.667,122.243 41.667 C 122.046 41.667,121.756 41.524,121.598 41.350 C 121.441 41.176,121.050 40.984,120.730 40.924 C 120.410 40.864,120.012 40.679,119.846 40.513 C 119.680 40.347,119.181 40.157,118.737 40.090 C 118.293 40.024,117.748 39.826,117.526 39.651 C 117.263 39.444,116.857 39.333,116.363 39.333 C 115.817 39.333,115.498 39.233,115.224 38.975 C 114.922 38.692,114.573 38.601,113.546 38.539 C 112.773 38.492,112.142 38.365,111.981 38.225 C 111.401 37.717,98.341 37.395,95.714 37.823 M283.064 37.976 C 282.595 38.038,282.108 38.174,281.981 38.278 C 281.828 38.404,280.481 38.488,278.000 38.527 C 274.700 38.578,274.180 38.623,273.667 38.901 C 273.239 39.133,272.586 39.245,271.222 39.320 C 269.858 39.396,269.280 39.495,269.056 39.692 C 268.853 39.871,268.260 40.001,267.296 40.079 C 266.248 40.163,265.728 40.285,265.436 40.515 C 265.181 40.715,264.762 40.835,264.307 40.837 C 263.321 40.843,262.403 41.074,262.079 41.397 C 261.900 41.576,261.518 41.667,260.940 41.667 C 260.411 41.667,259.824 41.792,259.442 41.987 C 259.097 42.163,258.500 42.355,258.115 42.414 C 257.247 42.546,256.500 42.827,256.500 43.020 C 256.500 43.101,256.256 43.167,255.958 43.168 C 255.165 43.169,254.214 43.470,254.105 43.753 C 254.050 43.896,253.798 44.000,253.505 44.000 C 253.222 44.000,252.853 44.147,252.667 44.333 C 252.213 44.787,252.130 122.607,252.583 123.059 C 253.173 123.650,276.532 123.706,277.119 123.119 C 277.402 122.836,277.419 121.329,277.460 91.994 L 277.503 61.167 277.850 61.167 C 278.041 61.167,278.388 61.017,278.621 60.833 C 278.997 60.538,279.300 60.500,281.314 60.497 C 282.798 60.494,283.958 60.402,284.667 60.231 C 286.011 59.905,286.376 59.905,288.250 60.231 C 289.082 60.376,290.716 60.494,291.919 60.496 C 293.803 60.500,294.175 60.546,294.744 60.851 C 295.190 61.091,295.828 61.230,296.741 61.289 C 297.593 61.344,298.189 61.468,298.372 61.628 C 298.537 61.772,299.304 61.960,300.150 62.065 C 300.969 62.167,301.695 62.306,301.764 62.375 C 302.627 63.240,304.037 61.774,304.134 59.910 C 304.193 58.796,304.292 58.316,304.532 57.993 C 304.770 57.670,304.876 57.163,304.950 55.989 C 305.022 54.857,305.132 54.310,305.344 54.038 C 305.545 53.778,305.673 53.202,305.751 52.204 C 305.818 51.338,305.992 50.476,306.182 50.072 C 306.395 49.618,306.500 49.029,306.500 48.286 C 306.500 47.458,306.595 46.996,306.875 46.463 C 307.207 45.832,307.250 45.506,307.250 43.632 C 307.250 41.234,307.174 41.057,306.072 40.889 C 305.711 40.833,305.287 40.675,305.128 40.537 C 304.965 40.396,304.192 40.205,303.361 40.102 C 302.548 40.000,301.748 39.804,301.583 39.667 C 301.372 39.491,300.732 39.392,299.433 39.333 C 297.964 39.267,297.484 39.183,297.100 38.923 C 296.670 38.632,296.257 38.588,293.433 38.530 C 290.780 38.475,290.199 38.419,289.941 38.191 C 289.604 37.892,284.837 37.744,283.064 37.976 M348.794 37.993 C 348.268 38.064,347.743 38.200,347.627 38.295 C 347.501 38.399,345.941 38.494,343.750 38.531 C 340.385 38.589,340.019 38.625,339.301 38.964 C 338.679 39.257,338.219 39.333,337.062 39.333 C 335.976 39.333,335.433 39.414,334.928 39.651 C 334.555 39.826,333.671 40.020,332.963 40.082 C 332.129 40.155,331.543 40.298,331.297 40.489 C 331.051 40.679,330.481 40.819,329.686 40.884 C 328.771 40.959,328.362 41.072,328.092 41.326 C 327.825 41.576,327.506 41.667,326.889 41.667 C 326.015 41.667,325.000 41.935,325.000 42.167 C 325.000 42.240,324.551 42.353,324.002 42.416 C 323.453 42.480,322.834 42.664,322.627 42.824 C 322.420 42.985,321.845 43.163,321.349 43.220 C 320.818 43.281,320.305 43.454,320.099 43.641 C 319.907 43.816,319.481 44.007,319.152 44.065 C 318.823 44.124,318.373 44.364,318.152 44.599 L 317.750 45.027 317.707 83.708 C 317.670 117.607,317.695 122.435,317.911 122.765 C 318.385 123.488,319.151 123.528,331.250 123.470 C 342.898 123.414,343.085 123.402,343.346 122.716 C 343.438 122.475,343.503 110.026,343.506 91.781 L 343.513 61.250 344.298 60.872 C 344.990 60.539,345.341 60.494,347.250 60.494 C 348.640 60.493,349.805 60.400,350.500 60.233 C 351.872 59.903,352.079 59.902,354.000 60.227 C 354.871 60.374,356.537 60.495,357.703 60.497 C 359.538 60.500,359.915 60.548,360.504 60.855 C 360.992 61.109,361.606 61.234,362.675 61.295 C 363.496 61.341,364.167 61.432,364.167 61.496 C 364.167 61.739,365.026 61.988,366.245 62.099 C 366.941 62.162,367.549 62.278,367.598 62.357 C 367.910 62.862,369.333 62.116,369.333 61.447 C 369.333 61.350,369.494 61.101,369.690 60.892 C 369.988 60.575,370.060 60.247,370.131 58.882 C 370.191 57.727,370.287 57.199,370.458 57.074 C 370.755 56.857,370.983 55.738,370.993 54.452 C 370.998 53.767,371.095 53.355,371.326 53.035 C 371.564 52.706,371.683 52.176,371.764 51.083 C 371.837 50.107,371.965 49.481,372.132 49.290 C 372.304 49.093,372.410 48.543,372.454 47.623 C 372.500 46.654,372.626 46.029,372.883 45.500 C 373.181 44.889,373.248 44.455,373.249 43.151 C 373.250 41.279,373.144 41.084,372.036 40.920 C 371.604 40.856,371.129 40.696,370.981 40.564 C 370.694 40.306,369.151 40.003,368.125 40.001 C 367.781 40.000,367.500 39.932,367.500 39.850 C 367.500 39.557,366.432 39.333,365.036 39.333 C 363.860 39.333,363.521 39.270,363.020 38.958 C 362.458 38.610,362.192 38.580,359.167 38.526 C 356.435 38.477,355.867 38.424,355.608 38.192 C 355.259 37.881,350.622 37.746,348.794 37.993 M159.907 39.570 C 159.589 39.802,159.583 40.296,159.539 66.612 C 159.496 93.204,159.534 95.384,160.053 95.974 C 160.223 96.168,160.317 96.808,160.368 98.121 C 160.427 99.635,160.500 100.057,160.748 100.331 C 160.961 100.566,161.086 101.048,161.156 101.904 C 161.220 102.685,161.356 103.251,161.527 103.444 C 161.676 103.613,161.850 104.142,161.914 104.622 C 161.978 105.101,162.164 105.664,162.327 105.872 C 162.490 106.080,162.679 106.506,162.748 106.819 C 162.816 107.132,163.051 107.724,163.269 108.136 C 163.488 108.547,163.667 108.973,163.667 109.082 C 163.667 109.192,163.817 109.417,164.000 109.583 C 164.183 109.749,164.335 110.005,164.336 110.151 C 164.340 110.453,165.154 111.747,165.662 112.256 C 165.848 112.442,166.001 112.667,166.003 112.756 C 166.020 113.674,171.872 119.333,172.803 119.333 C 172.905 119.333,173.065 119.477,173.159 119.653 C 173.254 119.829,173.548 120.021,173.815 120.079 C 174.081 120.138,174.427 120.327,174.583 120.500 C 174.740 120.673,175.080 120.861,175.339 120.918 C 175.598 120.975,175.899 121.129,176.008 121.260 C 176.117 121.390,176.513 121.580,176.889 121.682 C 177.264 121.783,177.753 122.008,177.975 122.183 C 178.197 122.357,178.570 122.500,178.803 122.500 C 179.037 122.500,179.393 122.654,179.594 122.843 C 179.841 123.076,180.276 123.217,180.938 123.281 C 181.476 123.333,182.162 123.523,182.462 123.704 C 182.838 123.930,183.436 124.060,184.379 124.121 C 185.257 124.178,185.854 124.300,186.040 124.463 C 186.909 125.220,209.927 125.219,210.794 124.461 C 211.015 124.268,211.678 124.188,213.588 124.124 C 215.720 124.053,216.190 123.988,216.752 123.687 C 217.279 123.404,217.702 123.333,218.862 123.333 C 220.308 123.333,221.136 123.152,221.363 122.786 C 221.433 122.672,222.151 122.555,223.116 122.502 C 224.093 122.448,224.918 122.313,225.167 122.167 C 225.396 122.033,226.241 121.839,227.044 121.735 C 227.938 121.620,228.623 121.441,228.807 121.273 C 228.979 121.118,229.392 121.000,229.763 120.999 C 230.798 120.998,231.610 120.698,232.073 120.149 L 232.500 119.641 232.500 79.922 C 232.500 41.066,232.493 40.195,232.181 39.810 L 231.863 39.417 219.891 39.372 C 207.593 39.326,207.199 39.344,206.887 39.974 C 206.812 40.126,206.730 54.323,206.705 71.523 L 206.661 102.796 202.872 102.921 C 197.640 103.093,193.261 102.952,192.909 102.599 C 192.763 102.453,192.442 102.291,192.197 102.239 C 191.743 102.142,191.509 102.042,190.539 101.528 C 189.886 101.181,187.667 98.920,187.667 98.600 C 187.667 98.476,187.555 98.281,187.418 98.168 C 187.281 98.054,187.087 97.651,186.986 97.272 C 186.885 96.893,186.707 96.471,186.589 96.333 C 186.472 96.196,186.324 95.671,186.261 95.167 C 186.196 94.658,186.011 94.102,185.843 93.917 C 185.599 93.647,185.525 93.195,185.453 91.549 C 185.387 90.003,185.292 89.384,185.058 88.966 C 184.764 88.441,184.746 87.347,184.667 64.112 C 184.585 40.295,184.577 39.802,184.260 39.570 C 183.776 39.216,160.390 39.216,159.907 39.570 M106.965 59.933 C 107.161 60.237,107.781 60.500,108.300 60.500 C 108.569 60.500,108.979 60.650,109.212 60.833 C 109.445 61.017,109.744 61.167,109.875 61.167 C 110.007 61.167,110.249 61.315,110.413 61.496 C 110.577 61.677,110.869 61.872,111.064 61.931 C 111.258 61.989,111.567 62.179,111.750 62.353 C 113.835 64.334,114.833 65.483,114.833 65.902 C 114.833 65.975,115.021 66.258,115.250 66.530 C 115.479 66.803,115.667 67.158,115.667 67.321 C 115.667 67.483,115.817 67.789,116.000 68.000 C 116.183 68.211,116.333 68.546,116.333 68.743 C 116.333 68.940,116.521 69.356,116.750 69.667 C 117.038 70.056,117.167 70.447,117.167 70.927 C 117.167 71.349,117.288 71.778,117.475 72.019 C 117.704 72.313,117.827 72.905,117.948 74.290 C 118.065 75.626,118.191 76.251,118.389 76.470 C 118.808 76.932,118.810 86.232,118.391 86.695 C 118.198 86.908,118.068 87.536,117.955 88.791 C 117.854 89.920,117.704 90.686,117.551 90.860 C 117.418 91.012,117.252 91.537,117.183 92.027 C 117.114 92.516,116.895 93.179,116.696 93.500 C 116.497 93.821,116.334 94.278,116.334 94.516 C 116.334 94.754,116.192 95.076,116.019 95.233 C 115.846 95.389,115.658 95.751,115.601 96.038 C 115.543 96.324,115.381 96.677,115.240 96.821 C 115.099 96.965,114.688 97.549,114.325 98.118 C 113.537 99.356,111.791 101.128,111.053 101.438 C 110.761 101.561,110.475 101.739,110.417 101.833 C 110.358 101.928,110.072 102.118,109.780 102.257 C 109.489 102.396,109.063 102.618,108.833 102.752 C 108.604 102.886,108.221 102.996,107.981 102.998 C 107.741 102.999,107.354 103.150,107.121 103.333 C 106.489 103.831,100.073 103.844,99.368 103.350 C 99.120 103.176,98.597 102.987,98.206 102.931 C 97.815 102.875,97.346 102.680,97.164 102.498 C 96.982 102.316,96.695 102.167,96.526 102.167 C 96.357 102.167,96.083 102.017,95.917 101.833 C 95.751 101.650,95.531 101.500,95.427 101.500 C 95.169 101.500,91.988 98.213,91.642 97.589 C 91.488 97.311,91.247 96.840,91.106 96.542 C 90.966 96.244,90.780 96.000,90.695 96.000 C 90.609 96.000,90.454 95.659,90.349 95.243 C 90.244 94.827,90.056 94.447,89.930 94.399 C 89.798 94.348,89.655 93.929,89.588 93.399 C 89.509 92.764,89.377 92.426,89.154 92.287 C 88.916 92.138,88.832 91.893,88.829 91.335 C 88.824 90.323,88.596 89.406,88.269 89.079 C 87.746 88.556,87.827 74.934,88.358 74.056 C 88.543 73.749,88.720 73.051,88.780 72.389 C 88.844 71.690,88.997 71.103,89.178 70.870 C 89.340 70.661,89.526 70.174,89.591 69.787 C 89.656 69.400,89.850 68.904,90.021 68.686 C 90.193 68.467,90.333 68.151,90.333 67.984 C 90.333 67.817,90.477 67.545,90.653 67.381 C 90.829 67.218,91.023 66.883,91.085 66.637 C 91.146 66.392,91.340 66.062,91.515 65.903 C 91.690 65.745,91.833 65.518,91.833 65.399 C 91.833 65.280,91.937 65.123,92.065 65.050 C 92.192 64.977,92.556 64.603,92.874 64.221 C 93.193 63.838,93.932 63.133,94.518 62.655 C 95.104 62.176,95.666 61.683,95.768 61.559 C 95.869 61.436,96.184 61.288,96.468 61.231 C 96.751 61.175,97.111 60.987,97.267 60.814 C 97.440 60.623,97.775 60.500,98.120 60.500 C 98.748 60.500,99.342 60.245,99.555 59.883 C 99.732 59.583,106.769 59.631,106.965 59.933 M381.881 88.790 C 382.412 88.823,383.237 88.823,383.714 88.789 C 384.192 88.756,383.758 88.729,382.750 88.729 C 381.742 88.729,381.351 88.757,381.881 88.790 M365.372 104.000 C 365.372 104.321,365.406 104.452,365.448 104.292 C 365.490 104.131,365.490 103.869,365.448 103.708 C 365.406 103.548,365.372 103.679,365.372 104.000 M365.372 108.500 C 365.372 108.821,365.406 108.952,365.448 108.792 C 365.490 108.631,365.490 108.369,365.448 108.208 C 365.406 108.048,365.372 108.179,365.372 108.500 M381.715 123.457 C 382.338 123.489,383.313 123.489,383.882 123.457 C 384.451 123.424,383.942 123.398,382.750 123.398 C 381.558 123.398,381.093 123.425,381.715 123.457 " stroke="none" fill="#7c7c7c" fill-rule="evenodd"></path><path id="path1" d="M379.667 88.952 C 379.529 89.002,379.304 89.136,379.167 89.250 C 379.029 89.363,378.469 89.506,377.921 89.567 C 377.310 89.635,376.795 89.798,376.588 89.988 C 376.402 90.159,375.938 90.349,375.557 90.411 C 375.175 90.473,374.736 90.665,374.581 90.836 C 374.426 91.007,374.082 91.195,373.818 91.253 C 373.554 91.311,373.292 91.431,373.238 91.520 C 373.183 91.608,372.839 91.870,372.472 92.101 C 371.034 93.009,368.812 95.473,367.957 97.107 C 367.796 97.415,367.593 97.667,367.505 97.667 C 367.418 97.667,367.262 97.985,367.158 98.375 C 367.055 98.765,366.830 99.235,366.658 99.421 C 366.470 99.624,366.300 100.140,366.233 100.713 C 366.171 101.237,366.068 101.667,366.004 101.667 C 365.258 101.667,365.138 109.955,365.872 110.793 C 366.012 110.953,366.176 111.434,366.238 111.863 C 366.300 112.292,366.488 112.818,366.657 113.033 C 366.825 113.247,367.035 113.683,367.123 114.003 C 367.212 114.322,367.523 114.921,367.815 115.333 C 368.107 115.746,368.524 116.346,368.742 116.667 C 369.795 118.213,371.818 120.167,372.367 120.167 C 372.432 120.167,372.669 120.335,372.893 120.542 C 373.663 121.248,373.878 121.388,374.564 121.623 C 374.941 121.753,375.372 121.969,375.521 122.103 C 375.669 122.237,376.184 122.409,376.664 122.485 C 377.144 122.561,377.586 122.703,377.647 122.801 C 377.916 123.237,378.839 123.333,382.750 123.333 C 386.757 123.333,387.433 123.257,387.941 122.749 C 388.078 122.612,388.437 122.500,388.739 122.500 C 389.049 122.500,389.554 122.319,389.901 122.083 C 390.239 121.854,390.656 121.667,390.828 121.667 C 391.000 121.667,391.364 121.479,391.636 121.250 C 391.909 121.021,392.210 120.833,392.306 120.833 C 392.402 120.833,392.579 120.697,392.699 120.531 C 392.819 120.364,393.039 120.183,393.188 120.127 C 394.067 119.800,396.833 117.008,396.833 116.448 C 396.833 116.337,396.983 116.153,397.167 116.039 C 397.350 115.924,397.500 115.730,397.500 115.608 C 397.500 115.485,397.650 115.249,397.834 115.083 C 398.018 114.916,398.250 114.474,398.350 114.099 C 398.449 113.724,398.637 113.298,398.766 113.153 C 398.895 113.008,399.082 112.446,399.182 111.903 C 399.281 111.361,399.487 110.778,399.640 110.608 C 400.069 110.129,400.056 102.356,399.626 101.880 C 399.466 101.704,399.290 101.189,399.234 100.738 C 399.178 100.286,398.996 99.721,398.829 99.483 C 398.662 99.244,398.447 98.756,398.351 98.399 C 398.254 98.042,398.023 97.656,397.838 97.540 C 397.652 97.425,397.500 97.211,397.500 97.064 C 397.500 96.818,397.321 96.551,396.299 95.273 C 395.160 93.849,392.435 91.485,391.667 91.254 C 391.438 91.185,391.100 90.996,390.917 90.835 C 390.733 90.673,390.292 90.489,389.936 90.425 C 389.579 90.362,389.087 90.161,388.841 89.979 C 388.573 89.781,387.998 89.609,387.405 89.549 C 386.830 89.492,386.251 89.321,386.019 89.142 C 385.626 88.836,380.405 88.680,379.667 88.952 " stroke="none" fill="#04b444" fill-rule="evenodd"></path></g></svg>